<svg width="26" height="20" viewBox="0 0 26 20" fill="none" xmlns="http://www.w3.org/2000/svg">
<path d="M24.75 16.75C24.75 17.2804 24.5201 17.7891 24.111 18.1642C23.7018 18.5393 23.1468 18.75 22.5682 18.75H2.93182C2.35316 18.75 1.79821 18.5393 1.38904 18.1642C0.97987 17.7891 0.75 17.2804 0.75 16.75V5.75C0.75 5.21957 0.97987 4.71086 1.38904 4.33579C1.79821 3.96071 2.35316 3.75 2.93182 3.75H7.29545L9.47727 0.75H16.0227L18.2045 3.75H22.5682C23.1468 3.75 23.7018 3.96071 24.111 4.33579C24.5201 4.71086 24.75 5.21957 24.75 5.75V16.75Z" stroke="#091837" stroke-opacity="0.6" stroke-width="1.5" stroke-linecap="round" stroke-linejoin="round"/>
<path d="M12.75 14.75C14.9591 14.75 16.75 12.9591 16.75 10.75C16.75 8.54086 14.9591 6.75 12.75 6.75C10.5409 6.75 8.75 8.54086 8.75 10.75C8.75 12.9591 10.5409 14.75 12.75 14.75Z" stroke="#091837" stroke-opacity="0.6" stroke-width="1.5" stroke-linecap="round" stroke-linejoin="round"/>
</svg>
